# xmcd
#
# Track frame offsets:
#	150
#	27458
#	47104
#	67885
#	84468
#	105078
#	139426
#	163979
#	194591
#	220595
#	250226
#	275695
#	297882
#	325041
#	339519
#
# Disc length: 4791 seconds
#
# Revision: 0
# Processed by: cddbd v1.5.2PL0 Copyright (c) Steve Scherf et al.
# Submitted via: audiograbber 1.83.01
#
DISCID=e112b50f
DTITLE=The Thrillseekers - Nightmusic 3 Disc 2
DYEAR=2008
DGENRE=Trance
TTITLE0=Lange - Songless (Club Mix)
TTITLE1=DEADMAU5 - Faxing Berlin (Chris Lake Edit)
TTITLE2=Tiesto Pres Allure ft Julie Thompson - Somewhere Inside (Andy Duguid Re
TTITLE2=mix)
TTITLE3=Dennis Sheppard - A Tribute To Life (Martin Roth Remix)
TTITLE4=First State ft Anita Kelsey - Falling
TTITLE5=John O'Callaghan ft Audrey Gallagher - Big Sky
TTITLE6=The Thrillseekers - By Your Side (Mind One Remix)
TTITLE7=Keenen and Anderson ft Tiff Lacey - Runaway (Mat Zo Vocal Remix)
TTITLE8=Georgia vs The Stimulator - We Rise (Georgia Dub)
TTITLE9=Adam Nickey - Never Gone (Above and Beyond Respray)
TTITLE10=Breakfast - The Horizon
TTITLE11=Evbointh - One Wish
TTITLE12=Markus Schulz ft Dauby - Perfect (Agnelli and Nelson Remix)
TTITLE13=Oliver Smith - Nimbus
TTITLE14=Simon Patterson - Bulldozer
EXTD=
EXTT0=
EXTT1=
EXTT2=
EXTT3=
EXTT4=
EXTT5=
EXTT6=
EXTT7=
EXTT8=
EXTT9=
EXTT10=
EXTT11=
EXTT12=
EXTT13=
EXTT14=
PLAYORDER=
